<svg xmlns:dc="http://purl.org/dc/elements/1.1/" xmlns:cc="http://creativecommons.org/ns#" xmlns:rdf="http://www.w3.org/1999/02/22-rdf-syntax-ns#" xmlns:svg="http://www.w3.org/2000/svg" xmlns="http://www.w3.org/2000/svg" xmlns:sodipodi="http://sodipodi.sourceforge.net/DTD/sodipodi-0.dtd" xmlns:inkscape="http://www.inkscape.org/namespaces/inkscape" version="1.1" x="0px" y="0px" viewBox="0 0 100 125"><g transform="translate(0,-952.36218)"><path style="text-indent:0;text-transform:none;direction:ltr;block-progression:tb;baseline-shift:baseline;color:#EC1C6B;enable-background:accumulate;" d="m 30,961.36218 c -3.28941,0 -6,2.7106 -6,6 l 0,4 -10,0 c -3.28941,0 -6,2.7106 -6,6 l 0,60.00002 c 0,3.2894 2.71059,6 6,6 l 72,0 c 3.28941,0 6,-2.7106 6,-6 l 0,-60.00002 c 0,-3.2894 -2.71059,-6 -6,-6 l -10,0 0,-4 c 0,-3.2894 -2.71059,-6 -6,-6 -3.28941,0 -6,2.7106 -6,6 l 0,4 -28,0 0,-4 c 0,-3.2894 -2.71059,-6 -6,-6 z m 0,4 c 1.14259,0 2,0.8574 2,2 l 0,12 c 0,1.1426 -0.85741,2 -2,2 -1.14259,0 -2,-0.8574 -2,-2 l 0,-12 c 0,-1.1426 0.85741,-2 2,-2 z m 40,0 c 1.14259,0 2,0.8574 2,2 l 0,12 c 0,1.1426 -0.85741,2 -2,2 -1.14259,0 -2,-0.8574 -2,-2 l 0,-12 c 0,-1.1426 0.85741,-2 2,-2 z m -56,10 10,0 0,4 c 0,3.2894 2.71059,6 6,6 3.28941,0 6,-2.7106 6,-6 l 0,-4 28,0 0,4 c 0,3.2894 2.71059,6 6,6 3.28941,0 6,-2.7106 6,-6 l 0,-4 10,0 c 1.14237,0 2,0.8576 2,2 l 0,12 -76,0 0,-12 c 0,-1.1424 0.85763,-2 2,-2 z m -2,18 76,0 0,44.00002 c 0,1.1424 -0.85763,2 -2,2 l -72,0 c -1.14237,0 -2,-0.8576 -2,-2 l 0,-44.00002 z" fill="#EC1C6B" fill-opacity="1" marker="none" visibility="visible" display="inline" overflow="visible"/></g></svg>